# xmcd
# 
# Track frame offsets:
#     150
#     21105
#     39670
#     63530
#     88810
#     124260
#     150327
#     170202
#     193010
#     211187
#     231125
#     249537
#     264307
# 
# Disc length: 3803
# 
# Revision: 7
# Processed by: cddbd v1.5.2PL0 Copyright (c) Steve Scherf et al.
# Submitted via: BonkEnc v1.0.8
# 
DISCID=b20ed90d
DTITLE=Sonia Dada - Lay Down and Love It Live
DYEAR=2001
DGENRE=
TTITLE0=Planes and Satellites
TTITLE1=Lester's Methadone Clinic
TTITLE2=I'm Gone
TTITLE3=Never See Me Again
TTITLE4=Amazing Jane
TTITLE5=You Ain't Thinking (About Me)
TTITLE6=Anna Lee
TTITLE7=Last Parade (Crazy Lady)
TTITLE8=Phases Of The Moon
TTITLE9=Don't Go (Giving Your Love Away)
TTITLE10=You Don't Treat Me No Good
TTITLE11=I Want To Take You Higher
TTITLE12=Goodnight
EXTD=
EXTT0=
EXTT1=
EXTT2=
EXTT3=
EXTT4=
EXTT5=
EXTT6=
EXTT7=
EXTT8=
EXTT9=
EXTT10=
EXTT11=
EXTT12=
PLAYORDER=
